<mxfile host="65bd71144e">
    <diagram id="KFPuRCOBGHdt2TMG7pT_" name="Page-1">
        <mxGraphModel dx="2426" dy="1142" grid="1" gridSize="10" guides="1" tooltips="1" connect="1" arrows="1" fold="1" page="1" pageScale="1" pageWidth="850" pageHeight="1100" math="0" shadow="0">
            <root>
                <mxCell id="0"/>
                <mxCell id="1" parent="0"/>
                <mxCell id="17" value="&lt;div style=&quot;color: rgb(204, 204, 204); background-color: rgb(31, 31, 31); font-family: Consolas, &amp;quot;Courier New&amp;quot;, monospace; font-weight: normal; font-size: 40px; line-height: 24px;&quot;&gt;&lt;div style=&quot;font-size: 40px;&quot;&gt;&lt;span style=&quot;color: rgb(86, 156, 214); font-size: 40px;&quot;&gt;const&lt;/span&gt;&lt;span style=&quot;color: rgb(204, 204, 204); font-size: 40px;&quot;&gt; &lt;/span&gt;&lt;span style=&quot;color: rgb(79, 193, 255); font-size: 40px;&quot;&gt;winPatterns&lt;/span&gt;&lt;span style=&quot;color: rgb(204, 204, 204); font-size: 40px;&quot;&gt; &lt;/span&gt;&lt;span style=&quot;color: rgb(212, 212, 212); font-size: 40px;&quot;&gt;=&lt;/span&gt;&lt;span style=&quot;color: rgb(204, 204, 204); font-size: 40px;&quot;&gt; [&lt;/span&gt;&lt;/div&gt;&lt;div style=&quot;font-size: 40px;&quot;&gt;&lt;span style=&quot;color: rgb(204, 204, 204); font-size: 40px;&quot;&gt;&lt;br style=&quot;font-size: 40px;&quot;&gt;&lt;/span&gt;&lt;/div&gt;&lt;div style=&quot;font-size: 40px;&quot;&gt;&lt;span style=&quot;color: rgb(204, 204, 204); font-size: 40px;&quot;&gt;&amp;nbsp;&lt;/span&gt;&lt;/div&gt;&lt;div style=&quot;font-size: 40px;&quot;&gt;&lt;span style=&quot;color: rgb(204, 204, 204); font-size: 40px;&quot;&gt;&amp;nbsp; &amp;nbsp; [&lt;/span&gt;&lt;span style=&quot;color: rgb(181, 206, 168); font-size: 40px;&quot;&gt;0&lt;/span&gt;&lt;span style=&quot;color: rgb(204, 204, 204); font-size: 40px;&quot;&gt;, &lt;/span&gt;&lt;span style=&quot;color: rgb(181, 206, 168); font-size: 40px;&quot;&gt;1&lt;/span&gt;&lt;span style=&quot;color: rgb(204, 204, 204); font-size: 40px;&quot;&gt;, &lt;/span&gt;&lt;span style=&quot;color: rgb(181, 206, 168); font-size: 40px;&quot;&gt;2&lt;/span&gt;&lt;span style=&quot;color: rgb(204, 204, 204); font-size: 40px;&quot;&gt;],&lt;/span&gt;&lt;/div&gt;&lt;div style=&quot;font-size: 40px;&quot;&gt;&lt;br&gt;&lt;/div&gt;&lt;div style=&quot;font-size: 40px;&quot;&gt;&amp;nbsp; &amp;nbsp; [&lt;span style=&quot;color: rgb(181, 206, 168);&quot;&gt;3&lt;/span&gt;, &lt;span style=&quot;color: rgb(181, 206, 168);&quot;&gt;4&lt;/span&gt;, &lt;span style=&quot;color: rgb(181, 206, 168);&quot;&gt;5&lt;/span&gt;],&lt;/div&gt;&lt;div style=&quot;font-size: 40px;&quot;&gt;&lt;span style=&quot;color: rgb(204, 204, 204); font-size: 40px;&quot;&gt;&lt;br&gt;&lt;/span&gt;&lt;/div&gt;&lt;div style=&quot;font-size: 40px;&quot;&gt;&lt;span style=&quot;color: rgb(204, 204, 204); font-size: 40px;&quot;&gt;&amp;nbsp; &amp;nbsp; [&lt;/span&gt;&lt;span style=&quot;color: rgb(181, 206, 168); font-size: 40px;&quot;&gt;6&lt;/span&gt;&lt;span style=&quot;color: rgb(204, 204, 204); font-size: 40px;&quot;&gt;, &lt;/span&gt;&lt;span style=&quot;color: rgb(181, 206, 168); font-size: 40px;&quot;&gt;7&lt;/span&gt;&lt;span style=&quot;color: rgb(204, 204, 204); font-size: 40px;&quot;&gt;, &lt;/span&gt;&lt;span style=&quot;color: rgb(181, 206, 168); font-size: 40px;&quot;&gt;8&lt;/span&gt;&lt;span style=&quot;color: rgb(204, 204, 204); font-size: 40px;&quot;&gt;],&lt;/span&gt;&lt;/div&gt;&lt;div style=&quot;font-size: 40px;&quot;&gt;&lt;span style=&quot;color: rgb(204, 204, 204); font-size: 40px;&quot;&gt;&lt;br&gt;&lt;/span&gt;&lt;/div&gt;&lt;div style=&quot;font-size: 40px;&quot;&gt;&lt;span style=&quot;color: rgb(204, 204, 204); font-size: 40px;&quot;&gt;&lt;br&gt;&lt;/span&gt;&lt;/div&gt;&lt;div style=&quot;font-size: 40px;&quot;&gt;&lt;span style=&quot;color: rgb(204, 204, 204); font-size: 40px;&quot;&gt;&amp;nbsp; &amp;nbsp; [&lt;/span&gt;&lt;span style=&quot;color: rgb(181, 206, 168); font-size: 40px;&quot;&gt;0&lt;/span&gt;&lt;span style=&quot;color: rgb(204, 204, 204); font-size: 40px;&quot;&gt;, &lt;/span&gt;&lt;span style=&quot;color: rgb(181, 206, 168); font-size: 40px;&quot;&gt;3&lt;/span&gt;&lt;span style=&quot;color: rgb(204, 204, 204); font-size: 40px;&quot;&gt;, &lt;/span&gt;&lt;span style=&quot;color: rgb(181, 206, 168); font-size: 40px;&quot;&gt;6&lt;/span&gt;&lt;span style=&quot;color: rgb(204, 204, 204); font-size: 40px;&quot;&gt;],&lt;/span&gt;&lt;/div&gt;&lt;div style=&quot;font-size: 40px;&quot;&gt;&lt;span style=&quot;color: rgb(204, 204, 204); font-size: 40px;&quot;&gt;&lt;br&gt;&lt;/span&gt;&lt;/div&gt;&lt;div style=&quot;font-size: 40px;&quot;&gt;&lt;span style=&quot;color: rgb(204, 204, 204); font-size: 40px;&quot;&gt;&amp;nbsp; &amp;nbsp; [&lt;/span&gt;&lt;span style=&quot;color: rgb(181, 206, 168); font-size: 40px;&quot;&gt;1&lt;/span&gt;&lt;span style=&quot;color: rgb(204, 204, 204); font-size: 40px;&quot;&gt;, &lt;/span&gt;&lt;span style=&quot;color: rgb(181, 206, 168); font-size: 40px;&quot;&gt;4&lt;/span&gt;&lt;span style=&quot;color: rgb(204, 204, 204); font-size: 40px;&quot;&gt;, &lt;/span&gt;&lt;span style=&quot;color: rgb(181, 206, 168); font-size: 40px;&quot;&gt;7&lt;/span&gt;&lt;span style=&quot;color: rgb(204, 204, 204); font-size: 40px;&quot;&gt;],&lt;/span&gt;&lt;/div&gt;&lt;div style=&quot;font-size: 40px;&quot;&gt;&lt;span style=&quot;color: rgb(204, 204, 204); font-size: 40px;&quot;&gt;&lt;br&gt;&lt;/span&gt;&lt;/div&gt;&lt;div style=&quot;font-size: 40px;&quot;&gt;&lt;span style=&quot;color: rgb(204, 204, 204); font-size: 40px;&quot;&gt;&amp;nbsp; &amp;nbsp; [&lt;/span&gt;&lt;span style=&quot;color: rgb(181, 206, 168); font-size: 40px;&quot;&gt;2&lt;/span&gt;&lt;span style=&quot;color: rgb(204, 204, 204); font-size: 40px;&quot;&gt;, &lt;/span&gt;&lt;span style=&quot;color: rgb(181, 206, 168); font-size: 40px;&quot;&gt;5&lt;/span&gt;&lt;span style=&quot;color: rgb(204, 204, 204); font-size: 40px;&quot;&gt;, &lt;/span&gt;&lt;span style=&quot;color: rgb(181, 206, 168); font-size: 40px;&quot;&gt;8&lt;/span&gt;&lt;span style=&quot;color: rgb(204, 204, 204); font-size: 40px;&quot;&gt;],&lt;/span&gt;&lt;/div&gt;&lt;div style=&quot;font-size: 40px;&quot;&gt;&lt;span style=&quot;color: rgb(204, 204, 204); font-size: 40px;&quot;&gt;&lt;br&gt;&lt;/span&gt;&lt;/div&gt;&lt;div style=&quot;font-size: 40px;&quot;&gt;&lt;span style=&quot;color: rgb(204, 204, 204); font-size: 40px;&quot;&gt;&lt;br&gt;&lt;/span&gt;&lt;/div&gt;&lt;div style=&quot;font-size: 40px;&quot;&gt;&lt;span style=&quot;color: rgb(204, 204, 204); font-size: 40px;&quot;&gt;&amp;nbsp; &amp;nbsp; [&lt;/span&gt;&lt;span style=&quot;color: rgb(181, 206, 168); font-size: 40px;&quot;&gt;0&lt;/span&gt;&lt;span style=&quot;color: rgb(204, 204, 204); font-size: 40px;&quot;&gt;, &lt;/span&gt;&lt;span style=&quot;color: rgb(181, 206, 168); font-size: 40px;&quot;&gt;4&lt;/span&gt;&lt;span style=&quot;color: rgb(204, 204, 204); font-size: 40px;&quot;&gt;, &lt;/span&gt;&lt;span style=&quot;color: rgb(181, 206, 168); font-size: 40px;&quot;&gt;8&lt;/span&gt;&lt;span style=&quot;color: rgb(204, 204, 204); font-size: 40px;&quot;&gt;],&lt;/span&gt;&lt;/div&gt;&lt;div style=&quot;font-size: 40px;&quot;&gt;&lt;span style=&quot;color: rgb(204, 204, 204); font-size: 40px;&quot;&gt;&lt;br&gt;&lt;/span&gt;&lt;/div&gt;&lt;div style=&quot;font-size: 40px;&quot;&gt;&amp;nbsp; &amp;nbsp; [&lt;span style=&quot;color: rgb(181, 206, 168);&quot;&gt;2&lt;/span&gt;, &lt;span style=&quot;color: rgb(181, 206, 168);&quot;&gt;4&lt;/span&gt;, &lt;span style=&quot;color: rgb(181, 206, 168);&quot;&gt;6&lt;/span&gt;],&lt;br&gt;&lt;/div&gt;&lt;div style=&quot;font-size: 40px;&quot;&gt;&lt;span style=&quot;color: rgb(204, 204, 204); font-size: 40px;&quot;&gt;&lt;br&gt;&lt;/span&gt;&lt;/div&gt;&lt;div style=&quot;font-size: 40px;&quot;&gt;&lt;span style=&quot;color: rgb(204, 204, 204); font-size: 40px;&quot;&gt;&lt;br&gt;&lt;/span&gt;&lt;/div&gt;&lt;div style=&quot;font-size: 40px;&quot;&gt;&lt;span style=&quot;color: rgb(204, 204, 204); font-size: 40px;&quot;&gt;&amp;nbsp; ];&lt;/span&gt;&lt;/div&gt;&lt;/div&gt;" style="text;whiteSpace=wrap;html=1;fontSize=40;" parent="1" vertex="1">
                    <mxGeometry x="-510" y="250" width="470" height="620" as="geometry"/>
                </mxCell>
                <mxCell id="20" value="&lt;font style=&quot;font-size: 30px;&quot;&gt;שורות&lt;/font&gt;" style="text;strokeColor=#001DBC;align=center;fillColor=#0050ef;html=1;verticalAlign=middle;whiteSpace=wrap;rounded=1;fontColor=#ffffff;direction=west;arcSize=50;" parent="1" vertex="1">
                    <mxGeometry x="-175" y="360" width="115" height="60" as="geometry"/>
                </mxCell>
                <mxCell id="21" value="&lt;span style=&quot;font-size: 30px;&quot;&gt;עמודות&lt;/span&gt;" style="text;strokeColor=#6F0000;align=center;fillColor=#a20025;html=1;verticalAlign=middle;whiteSpace=wrap;rounded=1;fontColor=#ffffff;arcSize=50;" parent="1" vertex="1">
                    <mxGeometry x="-175" y="517" width="115" height="65" as="geometry"/>
                </mxCell>
                <mxCell id="22" value="&lt;font style=&quot;font-size: 30px;&quot;&gt;אלכסונים&lt;/font&gt;" style="text;strokeColor=#005700;align=center;fillColor=#008a00;html=1;verticalAlign=middle;whiteSpace=wrap;rounded=1;fontColor=#ffffff;arcSize=50;" parent="1" vertex="1">
                    <mxGeometry x="-175" y="670" width="115" height="60" as="geometry"/>
                </mxCell>
                <mxCell id="2" value="" style="whiteSpace=wrap;html=1;aspect=fixed;fontSize=39;" parent="1" vertex="1">
                    <mxGeometry x="90" y="250" width="560" height="560" as="geometry"/>
                </mxCell>
                <mxCell id="10" value="7" style="whiteSpace=wrap;html=1;aspect=fixed;fontSize=39;strokeWidth=3;" parent="1" vertex="1">
                    <mxGeometry x="295.5265217391305" y="633.851304347826" width="144.33596837944663" height="144.33596837944663" as="geometry"/>
                </mxCell>
                <mxCell id="11" value="8" style="whiteSpace=wrap;html=1;aspect=fixed;strokeWidth=3;fontSize=39;fillColor=#008a00;fontColor=#ffffff;strokeColor=#005700;" parent="1" vertex="1">
                    <mxGeometry x="463.74391304347824" y="632.6339130434783" width="146.5565217391304" height="146.5565217391304" as="geometry"/>
                </mxCell>
                <mxCell id="48" value="0" style="whiteSpace=wrap;html=1;aspect=fixed;strokeWidth=3;fontSize=39;fillColor=#008a00;fontColor=#ffffff;strokeColor=#005700;" parent="1" vertex="1">
                    <mxGeometry x="130.76565217391305" y="282.1278260869565" width="144.33596837944663" height="144.33596837944663" as="geometry"/>
                </mxCell>
                <mxCell id="49" value="1" style="whiteSpace=wrap;html=1;aspect=fixed;strokeWidth=3;fontSize=39;" parent="1" vertex="1">
                    <mxGeometry x="297.83086956521737" y="280.80782608695654" width="144.33596837944663" height="144.33596837944663" as="geometry"/>
                </mxCell>
                <mxCell id="50" value="2" style="whiteSpace=wrap;html=1;aspect=fixed;strokeWidth=3;fontSize=39;" parent="1" vertex="1">
                    <mxGeometry x="466.0482608695652" y="280.80782608695654" width="144.33596837944663" height="144.33596837944663" as="geometry"/>
                </mxCell>
                <mxCell id="51" value="3" style="whiteSpace=wrap;html=1;aspect=fixed;strokeWidth=3;fontSize=39;" parent="1" vertex="1">
                    <mxGeometry x="130.76565217391305" y="463.41652173913053" width="144.33596837944663" height="144.33596837944663" as="geometry"/>
                </mxCell>
                <mxCell id="52" value="4" style="whiteSpace=wrap;html=1;aspect=fixed;strokeWidth=3;fontSize=39;fillColor=#008a00;fontColor=#ffffff;strokeColor=#005700;" parent="1" vertex="1">
                    <mxGeometry x="297.83086956521737" y="463.41652173913053" width="144.33596837944663" height="144.33596837944663" as="geometry"/>
                </mxCell>
                <mxCell id="53" value="5" style="whiteSpace=wrap;html=1;aspect=fixed;strokeWidth=3;fontSize=39;" parent="1" vertex="1">
                    <mxGeometry x="466.0482608695652" y="463.41652173913053" width="144.33596837944663" height="144.33596837944663" as="geometry"/>
                </mxCell>
                <mxCell id="54" value="6" style="whiteSpace=wrap;html=1;aspect=fixed;strokeWidth=3;fontSize=39;" parent="1" vertex="1">
                    <mxGeometry x="129.61347826086956" y="633.851304347826" width="144.33596837944663" height="144.33596837944663" as="geometry"/>
                </mxCell>
                <mxCell id="55" value="&lt;font style=&quot;font-size: 32px;&quot;&gt;Playr O&lt;/font&gt;" style="text;strokeColor=none;align=center;fillColor=none;html=1;verticalAlign=middle;whiteSpace=wrap;rounded=0;" vertex="1" parent="1">
                    <mxGeometry x="273.95000000000005" y="830" width="210" height="90" as="geometry"/>
                </mxCell>
                <mxCell id="56" value="NEW GAME" style="whiteSpace=wrap;html=1;fontSize=32;" vertex="1" parent="1">
                    <mxGeometry x="268.95" y="910" width="220" height="60" as="geometry"/>
                </mxCell>
                <mxCell id="57" value="xWin:&amp;nbsp; 1&lt;br&gt;oWin: 3" style="whiteSpace=wrap;html=1;fontSize=32;" vertex="1" parent="1">
                    <mxGeometry x="203.95" y="980" width="350" height="90" as="geometry"/>
                </mxCell>
            </root>
        </mxGraphModel>
    </diagram>
</mxfile>